<svg xmlns="http://www.w3.org/2000/svg" xmlns:xlink="http://www.w3.org/1999/xlink" width="180" height="182" viewBox="0 0 180 182">
  <defs>
    <filter id="Path_3" x="34" y="60.315" width="114.037" height="81.753" filterUnits="userSpaceOnUse">
      <feOffset dx="5" dy="-3" input="SourceAlpha"/>
      <feGaussianBlur stdDeviation="2" result="blur"/>
      <feFlood flood-opacity="0.161"/>
      <feComposite operator="in" in2="blur"/>
      <feComposite in="SourceGraphic"/>
    </filter>
    <filter id="Path_2" x="34.132" y="38.257" width="113.94" height="34.267" filterUnits="userSpaceOnUse">
      <feOffset dx="5" dy="-3" input="SourceAlpha"/>
      <feGaussianBlur stdDeviation="2" result="blur-2"/>
      <feFlood flood-opacity="0.161"/>
      <feComposite operator="in" in2="blur-2"/>
      <feComposite in="SourceGraphic"/>
    </filter>
    <filter id="Path_12" x="90.224" y="89.353" width="77.177" height="77.177" filterUnits="userSpaceOnUse">
      <feOffset dx="5" dy="2" input="SourceAlpha"/>
      <feGaussianBlur stdDeviation="2" result="blur-3"/>
      <feFlood flood-opacity="0.161"/>
      <feComposite operator="in" in2="blur-3"/>
      <feComposite in="SourceGraphic"/>
    </filter>
  </defs>
  <g id="Group_10" data-name="Group 10" transform="translate(224 -181)">
    <g id="Group_9" data-name="Group 9">
      <path id="Path_11" data-name="Path 11" d="M90,0c49.706,0,90,40.742,90,91s-40.294,91-90,91S0,141.258,0,91,40.294,0,90,0Z" transform="translate(-224 181)" fill="#e56353"/>
    </g>
    <g id="calendar-svgrepo-com" transform="translate(-189.26 218)">
      <g transform="matrix(1, 0, 0, 1, -34.74, -37)" filter="url(#Path_3)">
        <path id="Path_3-2" data-name="Path 3" d="M.392,130.7.26,194.96a5.33,5.33,0,0,0,5.357,5.3l91.169.187a5.33,5.33,0,0,0,5.379-5.281l.132-64.263Z" transform="translate(34.74 -61.38)" fill="#ebf0f3"/>
      </g>
      <g transform="matrix(1, 0, 0, 1, -34.74, -37)" filter="url(#Path_2)">
        <path id="Path_2-2" data-name="Path 2" d="M102.734,46.974a5.331,5.331,0,0,0-5.357-5.3L6.208,41.484A5.33,5.33,0,0,0,.828,46.764L.794,63.542l101.9.209Z" transform="translate(34.34 5.77)" fill="#e56353"/>
      </g>
      <g id="Group_2" data-name="Group 2" transform="translate(13.077 12.775)">
        <circle id="Ellipse_2" data-name="Ellipse 2" cx="4.832" cy="4.832" r="4.832" fill="#d15241"/>
        <circle id="Ellipse_3" data-name="Ellipse 3" cx="4.832" cy="4.832" r="4.832" transform="translate(66.937 0.137)" fill="#d15241"/>
      </g>
      <path id="Path_4" data-name="Path 4" d="M71.656,0l-.042,20.563a3.361,3.361,0,0,0,3.391-3.329l.028-13.891A3.361,3.361,0,0,0,71.656,0Z" transform="translate(-53.712 0)" fill="#e1e6e9"/>
      <g id="Group_3" data-name="Group 3" transform="translate(14.525 0)">
        <path id="Path_5" data-name="Path 5" d="M57.981,3.329,57.953,17.22a3.36,3.36,0,0,0,3.377,3.343L61.373,0A3.361,3.361,0,0,0,57.981,3.329Z" transform="translate(-57.953 0)" fill="#ebf0f3"/>
        <path id="Path_6" data-name="Path 6" d="M328.692,3.885l-.028,13.891a3.361,3.361,0,0,0,3.377,3.343L332.084.556A3.361,3.361,0,0,0,328.692,3.885Z" transform="translate(-261.731 -0.419)" fill="#ebf0f3"/>
      </g>
      <path id="Path_7" data-name="Path 7" d="M342.367.556l-.042,20.563a3.361,3.361,0,0,0,3.391-3.329L345.745,3.9A3.361,3.361,0,0,0,342.367.556Z" transform="translate(-257.49 -0.419)" fill="#e1e6e9"/>
      <g id="Group_4" data-name="Group 4" transform="translate(46.581 39.312)">
        <rect id="Rectangle_1" data-name="Rectangle 1" width="9.456" height="9.456" transform="translate(9.456 9.475) rotate(-179.885)" fill="#d5d6db"/>
        <rect id="Rectangle_2" data-name="Rectangle 2" width="9.456" height="9.456" transform="translate(26.418 9.502) rotate(-179.885)" fill="#d5d6db"/>
      </g>
      <rect id="Rectangle_3" data-name="Rectangle 3" width="9.456" height="9.456" transform="translate(89.975 48.853) rotate(-179.885)" fill="#e56353"/>
      <rect id="Rectangle_4" data-name="Rectangle 4" width="9.456" height="9.456" transform="translate(22.075 64.141) rotate(-179.885)" fill="#d5d6db"/>
      <rect id="Rectangle_5" data-name="Rectangle 5" width="9.456" height="9.456" transform="translate(39.034 64.181) rotate(-179.885)" fill="#44c4a1"/>
      <g id="Group_5" data-name="Group 5" transform="translate(46.549 54.744)">
        <rect id="Rectangle_6" data-name="Rectangle 6" width="9.456" height="9.456" transform="translate(9.456 9.475) rotate(-179.885)" fill="#d5d6db"/>
        <rect id="Rectangle_7" data-name="Rectangle 7" width="9.456" height="9.456" transform="translate(26.424 9.515) rotate(-179.885)" fill="#d5d6db"/>
      </g>
      <rect id="Rectangle_8" data-name="Rectangle 8" width="9.456" height="9.456" transform="translate(89.936 64.284) rotate(-179.885)" fill="#e56353"/>
      <g id="Group_6" data-name="Group 6" transform="translate(12.586 70.11)">
        <rect id="Rectangle_9" data-name="Rectangle 9" width="9.456" height="9.456" transform="translate(9.456 9.475) rotate(-179.885)" fill="#d5d6db"/>
        <rect id="Rectangle_10" data-name="Rectangle 10" width="9.456" height="9.456" transform="translate(26.422 9.515) rotate(-179.885)" fill="#d5d6db"/>
        <rect id="Rectangle_11" data-name="Rectangle 11" width="9.456" height="9.456" transform="translate(43.386 9.54) rotate(-179.885)" fill="#d5d6db"/>
        <rect id="Rectangle_12" data-name="Rectangle 12" width="9.456" height="9.456" transform="translate(60.349 9.58) rotate(-179.885)" fill="#d5d6db"/>
      </g>
      <rect id="Rectangle_13" data-name="Rectangle 13" width="9.456" height="9.456" transform="translate(89.911 79.727) rotate(-179.885)" fill="#e56353"/>
      <g id="Group_7" data-name="Group 7" transform="translate(12.554 85.542)">
        <rect id="Rectangle_14" data-name="Rectangle 14" width="9.456" height="9.456" transform="translate(9.456 9.475) rotate(-179.885)" fill="#d5d6db"/>
        <rect id="Rectangle_15" data-name="Rectangle 15" width="9.456" height="9.456" transform="translate(26.416 9.515) rotate(-179.885)" fill="#d5d6db"/>
      </g>
      <g transform="matrix(1, 0, 0, 1, -34.74, -37)" filter="url(#Path_12)">
        <path id="Path_12-2" data-name="Path 12" d="M32.588,0A32.588,32.588,0,1,1,0,32.588,32.588,32.588,0,0,1,32.588,0Z" transform="translate(91.22 93.35)" fill="#64798a"/>
      </g>
      <circle id="Ellipse_5" data-name="Ellipse 5" cx="26.597" cy="26.597" r="26.597" transform="translate(62.475 62.344)" fill="#fff"/>
      <path id="Path_8" data-name="Path 8" d="M253.156,279.323a25.947,25.947,0,0,1,51.893-.219c0-.109.009-.216.009-.326A26.6,26.6,0,1,0,278.4,305.326c.109,0,.217-.006.326-.007A25.946,25.946,0,0,1,253.156,279.323Z" transform="translate(-189.388 -189.785)" fill="#e1e6e9"/>
      <path id="Path_9" data-name="Path 9" d="M359.888,359.924a.591.591,0,0,1-.418-.174l-17.221-17.292a.593.593,0,0,1,.84-.836l17.221,17.292a.592.592,0,0,1-.421,1.01Z" transform="translate(-257.302 -257.025)" fill="#e56353"/>
      <path id="Path_10" data-name="Path 10" d="M316.894,304.185l.029-13.981a.889.889,0,1,0-1.778,0l-.029,13.981a2.7,2.7,0,0,0-1.527,1.348l-10.673-.022a1.185,1.185,0,0,0,0,2.37l10.673.022a2.692,2.692,0,1,0,3.309-3.714Z" transform="translate(-226.931 -217.781)" fill="#64798a"/>
      <circle id="Ellipse_6" data-name="Ellipse 6" cx="1.514" cy="1.514" r="1.514" transform="translate(87.559 87.413)" fill="#fff"/>
      <g id="Group_8" data-name="Group 8" transform="translate(65.204 65.078)">
        <circle id="Ellipse_7" data-name="Ellipse 7" cx="1.33" cy="1.33" r="1.33" transform="translate(22.586)" fill="#3a556a"/>
        <circle id="Ellipse_8" data-name="Ellipse 8" cx="1.33" cy="1.33" r="1.33" transform="translate(22.489 45.064)" fill="#3a556a"/>
        <circle id="Ellipse_9" data-name="Ellipse 9" cx="1.33" cy="1.33" r="1.33" transform="translate(45.064 22.573)" fill="#3a556a"/>
        <circle id="Ellipse_10" data-name="Ellipse 10" cx="1.33" cy="1.33" r="1.33" transform="translate(0 22.489)" fill="#3a556a"/>
      </g>
    </g>
  </g>
</svg>
